Coordinates
version=1
nRows=16
nColumns=40
inDegrees=yes

Units are S.I. units (second, meters, Newtons, ...)
Angles are in degrees.

endheader
time	pelvis_tilt	pelvis_list	pelvis_rotation	pelvis_tx	pelvis_ty	pelvis_tz	hip_flexion_r	hip_adduction_r	hip_rotation_r	knee_angle_r	knee_angle_r_beta	ankle_angle_r	subtalar_angle_r	mtp_angle_r	hip_flexion_l	hip_adduction_l	hip_rotation_l	knee_angle_l	knee_angle_l_beta	ankle_angle_l	subtalar_angle_l	mtp_angle_l	lumbar_extension	lumbar_bending	lumbar_rotation	arm_flex_r	arm_add_r	arm_rot_r	elbow_flex_r	pro_sup_r	wrist_flex_r	wrist_dev_r	arm_flex_l	arm_add_l	arm_rot_l	elbow_flex_l	pro_sup_l	wrist_flex_l	wrist_dev_l
     17.21500000	     -3.29006545	     -4.53543659	      6.99672184	      1.02016768	      0.92191154	      0.43875380	      4.01002796	     -0.97446116	    -14.12499564	     29.02104173	     29.02104173	     16.71332709	     -7.09021734	     -6.02243449	     25.41532668	     -6.16539375	     -1.53528921	     27.20831661	     27.20831661	      8.47554044	    -12.08307017	      1.86235409	     -8.59013906	      2.35049693	      4.51453010	     19.99301671	    -13.57929378	     12.36305969	     65.41019576	     45.12217812	      0.00000000	      0.00000000	      2.64666349	    -10.62094915	     -8.10839040	     38.65516774	     46.01129283	      0.00000000	      0.00000000
     17.22771429	     -3.35647369	     -4.37323103	      6.82549766	      1.02025699	      0.92257855	      0.43659846	      5.56282962	     -1.72038546	    -13.65983476	     32.32453658	     32.32453658	     15.68345276	     -8.40292876	     -6.85529462	     24.88537327	     -5.99229512	     -1.96255428	     26.95858059	     26.95858059	      8.78927031	    -11.78021221	      1.64877973	     -8.65983406	      2.16283636	      4.44351741	     19.13998267	    -13.60250573	     12.98836280	     64.04062735	     45.14297813	      0.00000000	      0.00000000	      3.45888489	    -10.86559607	     -7.89374821	     38.91968486	     45.99916277	      0.00000000	      0.00000000
     17.24042857	     -3.49040959	     -4.19359261	      6.60953639	      1.02024102	      0.92301600	      0.43467866	      7.37038113	     -2.46510055	    -13.05388368	     35.85736063	     35.85736063	     14.33795041	     -9.97570895	     -7.78978397	     24.41442097	     -5.80505749	     -2.39700648	     26.67390586	     26.67390586	      9.06624330	    -11.55821547	      1.41788784	     -8.62737508	      1.86211557	      4.39446762	     18.30532204	    -13.62174027	     13.65425128	     62.39376575	     45.17173337	      0.00000000	      0.00000000	      4.23051483	    -11.13902007	     -7.60392770	     39.17895333	     45.97854411	      0.00000000	      0.00000000
     17.25314286	     -3.54725636	     -3.99525489	      6.41355855	      1.02019343	      0.92347499	      0.43274512	      9.17255177	     -3.20516448	    -12.43409754	     39.44382290	     39.44382290	     12.71448108	    -11.55334843	     -8.62883943	     23.86636076	     -5.57385307	     -2.74436364	     26.40057158	     26.40057158	      9.29908476	    -11.42082787	      1.19577804	     -8.70571908	      1.66432058	      4.25689471	     17.50041471	    -13.59982158	     14.25146257	     60.69955131	     45.20452886	      0.00000000	      0.00000000	      4.99853625	    -11.44450034	     -7.28751750	     39.45827027	     45.95562838	      0.00000000	      0.00000000
     17.26585714	     -3.62733613	     -3.82465933	      6.19626630	      1.02003634	      0.92387172	      0.43106970	     11.06403780	     -3.87726728	    -11.79778156	     42.99615620	     42.99615620	     10.72551438	    -13.19487793	     -9.38341958	     23.37813378	     -5.38288866	     -3.09969413	     26.14071177	     26.14071177	      9.42394739	    -11.42976245	      0.97992494	     -8.76883614	      1.39384485	      4.07353897	     16.74551115	    -13.56853589	     14.82393383	     58.70391362	     45.24874761	      0.00000000	      0.00000000	      5.71619946	    -11.76239449	     -6.85670673	     39.74976885	     45.92052741	      0.00000000	      0.00000000
     17.27857143	     -3.50744003	     -3.58554210	      6.04707255	      1.01996185	      0.92431420	      0.42922665	     12.75575809	     -4.62853478	    -11.23312969	     46.55128631	     46.55128631	      8.82263909	    -14.40644727	     -9.63113993	     22.70752826	     -5.09633825	     -3.30484622	     25.97830837	     25.97830837	      9.71149091	    -11.39300686	      0.76818945	     -9.03563805	      1.18745361	      3.77117858	     15.92864067	    -13.56753328	     15.14037642	     57.37041069	     45.27909521	      0.00000000	      0.00000000	      6.49629951	    -12.10797357	     -6.63734541	     40.06767536	     45.90926711	      0.00000000	      0.00000000
     17.29128571	     -3.55266371	     -3.39332699	      5.80669585	      1.01977869	      0.92461217	      0.42762558	     14.67406966	     -5.25554514	    -10.51874296	     49.97914098	     49.97914098	      6.69613560	    -15.67458282	     -9.60873928	     22.20262747	     -4.86958588	     -3.58276904	     25.74988074	     25.74988074	      9.81528797	    -11.46780928	      0.62720222	     -9.10403822	      1.04637761	      3.62406944	     14.98839427	    -13.59784873	     15.43572117	     55.63965128	     45.32359223	      0.00000000	      0.00000000	      7.15724568	    -12.42228433	     -6.32088805	     40.38201084	     45.88655766	      0.00000000	      0.00000000
     17.30400000	     -3.50131584	     -3.34915745	      5.62378053	      1.01961305	      0.92502666	      0.42613270	     16.44730167	     -5.63079847	     -9.82502107	     53.16564451	     53.16564451	      4.66150821	    -16.65403608	     -8.91241424	     21.57532129	     -4.73837168	     -3.55584341	     25.40508329	     25.40508329	      9.64206240	    -11.95343965	     -0.30701405	     -9.12822755	      1.03912526	      2.81593502	     15.61750318	    -12.56881390	     15.68895703	     49.49997826	     45.52341873	      0.00000000	      0.00000000	      7.20416630	    -13.50910345	     -3.40142450	     41.21379214	     45.61844899	      0.00000000	      0.00000000
     17.31671429	     -3.40174213	     -3.20173889	      5.42001264	      1.01942013	      0.92544615	      0.42462086	     18.12329983	     -6.12744261	     -9.16914288	     56.14836939	     56.14836939	      2.71537114	    -17.22018134	     -8.34064653	     20.96841291	     -4.56329522	     -3.77819452	     25.25558322	     25.25558322	      9.90667974	    -11.98811727	     -0.39412508	     -9.37948295	      0.97680485	      2.59902368	     14.47980365	    -12.81683913	     15.74555494	     48.57107921	     45.54663089	      0.00000000	      0.00000000	      7.90043985	    -13.75892642	     -3.32407562	     41.56698421	     45.62602738	      0.00000000	      0.00000000
     17.32942857	     -3.31094032	     -3.18417698	      5.22735672	      1.01925296	      0.92592040	      0.42323596	     19.76682462	     -6.35797587	     -8.46051413	     58.86848665	     58.86848665	      1.22620632	    -17.55687393	     -6.64835651	     20.39311129	     -4.50101316	     -3.82268515	     25.10347982	     25.10347982	     10.11871778	    -12.13877508	     -0.49742006	     -9.50637360	      1.07486349	      2.67432454	     13.42821728	    -13.10586913	     15.45546684	     46.35846606	     45.63155610	      0.00000000	      0.00000000	      8.77613794	    -13.93019661	     -2.76448267	     42.00409707	     45.59328861	      0.00000000	      0.00000000
     17.34214286	     -3.13146428	     -3.12901546	      5.02604309	      1.01909712	      0.92653589	      0.42195422	     21.18023184	     -6.56667894	     -7.74042913	     61.16099159	     61.16099159	     -0.25608353	    -17.65903496	     -5.84461780	     19.72737740	     -4.44326236	     -4.03420431	     24.98004716	     24.98004716	     10.39242875	    -12.17462020	     -0.58127379	     -9.81955912	      1.15227848	      2.32553879	     12.46706309	    -13.23584883	     15.29886784	     45.22223129	     45.67394308	      0.00000000	      0.00000000	      9.34374623	    -14.23776485	     -2.55405984	     42.23065395	     45.58448326	      0.00000000	      0.00000000
     17.35485714	     -2.94250639	     -3.28996627	      4.79430990	      1.01893224	      0.92732464	      0.42094132	     22.57892044	     -6.38992154	     -7.01773815	     63.24547679	     63.24547679	     -0.24944795	    -17.06438788	     -1.44243468	     19.05907745	     -4.61840462	     -4.12381716	     24.82613423	     24.82613423	     10.65021128	    -12.25150678	     -0.77488515	    -10.00605153	      1.48616366	      2.22334283	     12.42705315	    -12.48913828	     13.02009426	     39.96182261	     45.97053346	      0.00000000	      0.00000000	     10.06044149	    -14.79801913	     -0.14169831	     42.49678569	     45.38749695	      0.00000000	      0.00000000
     17.36757143	     -2.85195565	     -3.33159823	      4.54871777	      1.01872812	      0.92797381	      0.41989773	     23.85331554	     -6.39056604	     -6.40072796	     64.70573917	     64.70573917	     -1.21198861	    -16.88736811	     -1.19172277	     18.45958189	     -4.65815894	     -4.29530826	     24.62608605	     24.62608605	     10.91182684	    -12.25368218	     -0.79515050	    -10.17539528	      1.69082372	      1.97703108	     11.29449794	    -12.87836597	     12.72355213	     39.11241855	     46.00784526	      0.00000000	      0.00000000	     10.55816643	    -14.99024903	     -0.00692399	     42.90841119	     45.38990837	      0.00000000	      0.00000000
     17.38028571	     -2.69084933	     -3.49240348	      4.28328630	      1.01857144	      0.92876391	      0.41912771	     24.94802466	     -6.17037219	     -5.85031823	     65.78357240	     65.78357240	     -1.36872214	    -16.41764887	      0.37091421	     17.80449918	     -4.85159134	     -4.44670776	     24.45905462	     24.45905462	     11.24792025	    -12.24269157	     -0.76189633	    -10.36829022	      2.02516410	      1.97497944	     10.93113457	    -12.38458415	      9.22459302	     35.20871113	     46.31998995	      0.00000000	      0.00000000	     11.04922496	    -15.63946479	      2.37562651	     43.81606466	     45.23471219	      0.00000000	      0.00000000
     17.39300000	     -2.50532861	     -3.67538673	      4.05340372	      1.01834314	      0.92957883	      0.41828720	     25.81426629	     -5.97752793	     -5.50625953	     66.29700535	     66.29700535	     -1.73436947	    -16.10072041	      0.32303618	     17.18030923	     -5.04765822	     -4.52890599	     24.37883217	     24.37883217	     11.55520363	    -12.36373135	     -0.80441753	    -10.66121407	      2.45910969	      1.30947504	     10.15021662	    -12.71358797	      9.15939743	     34.86102255	     46.33115638	      0.00000000	      0.00000000	     11.40284823	    -15.72336673	      2.36336985	     43.95698207	     45.24202099	      0.00000000	      0.00000000
     17.40571429	     -2.47904796	     -3.71826773	      3.66031287	      1.01817905	      0.93020435	      0.41785759	     26.80809121	     -5.88311645	     -5.08261146	     66.51381003	     66.51381003	     -1.62481357	    -15.66387864	      0.47227659	     16.54072817	     -5.11596770	     -4.78547070	     24.03088918	     24.03088918	     11.86398612	    -12.35297090	     -0.61500705	    -10.75958471	      2.61216869	      2.28714639	      9.08548973	    -12.38870255	      2.60867979	     31.47914149	     46.72132822	      0.00000000	      0.00000000	     12.28280868	    -16.06976674	      4.50966355	     45.10678767	     45.30916330	      0.00000000	      0.00000000
